<svg width="152" height="160" viewBox="0 0 152 160" fill="none" xmlns="http://www.w3.org/2000/svg">
<path d="M67.2299 91.1065L65.5062 90.6943L66.1282 85.1633H72.2587V86.9095H67.9044L67.6346 89.3303C67.7795 89.2453 67.9993 89.1554 68.2941 89.0605C68.5889 88.9605 68.9187 88.9106 69.2834 88.9106C69.813 88.9106 70.2827 88.993 70.6924 89.1579C71.1021 89.3228 71.4493 89.5626 71.7341 89.8774C72.0239 90.1922 72.2437 90.5769 72.3936 91.0315C72.5435 91.4862 72.6185 92.0008 72.6185 92.5754C72.6185 93.0601 72.5435 93.5222 72.3936 93.9619C72.2437 94.3966 72.0164 94.7863 71.7116 95.1311C71.4069 95.4708 71.0246 95.7381 70.565 95.933C70.1053 96.1278 69.5607 96.2253 68.9312 96.2253C68.4615 96.2253 68.0068 96.1553 67.5672 96.0154C67.1325 95.8755 66.7403 95.6682 66.3905 95.3934C66.0458 95.1186 65.7685 94.7863 65.5586 94.3966C65.3538 94.0019 65.2463 93.5522 65.2363 93.0476H67.3798C67.4098 93.3573 67.4897 93.6247 67.6196 93.8495C67.7545 94.0693 67.9319 94.2392 68.1517 94.3591C68.3716 94.479 68.6289 94.539 68.9237 94.539C69.1985 94.539 69.4333 94.4865 69.6282 94.3816C69.823 94.2767 69.9804 94.1318 70.1003 93.9469C70.2202 93.7571 70.3077 93.5372 70.3626 93.2874C70.4226 93.0326 70.4526 92.7578 70.4526 92.463C70.4526 92.1682 70.4176 91.9009 70.3476 91.6611C70.2777 91.4213 70.1703 91.2139 70.0254 91.039C69.8805 90.8642 69.6956 90.7293 69.4708 90.6343C69.2509 90.5394 68.9936 90.4919 68.6988 90.4919C68.2991 90.4919 67.9893 90.5544 67.7695 90.6793C67.5547 90.8042 67.3748 90.9466 67.2299 91.1065ZM81.3646 93.085C81.3646 93.7695 81.2047 94.3466 80.885 94.8163C80.5652 95.2809 80.1255 95.6332 79.5659 95.873C79.0113 96.1078 78.3818 96.2253 77.6773 96.2253C76.9728 96.2253 76.3408 96.1078 75.7812 95.873C75.2216 95.6332 74.7794 95.2809 74.4546 94.8163C74.1299 94.3466 73.9675 93.7695 73.9675 93.085C73.9675 92.6254 74.0599 92.2107 74.2448 91.841C74.4297 91.4662 74.687 91.1465 75.0167 90.8816C75.3515 90.6118 75.7437 90.407 76.1934 90.2671C76.643 90.1222 77.1327 90.0498 77.6623 90.0498C78.3718 90.0498 79.0063 90.1747 79.5659 90.4245C80.1255 90.6743 80.5652 91.0265 80.885 91.4812C81.2047 91.9359 81.3646 92.4705 81.3646 93.085ZM79.1912 92.9427C79.1912 92.6079 79.1262 92.3206 78.9963 92.0808C78.8714 91.836 78.6941 91.6486 78.4642 91.5187C78.2344 91.3888 77.9671 91.3238 77.6623 91.3238C77.3575 91.3238 77.0902 91.3888 76.8604 91.5187C76.6306 91.6486 76.4507 91.836 76.3208 92.0808C76.1959 92.3206 76.1334 92.6079 76.1334 92.9427C76.1334 93.2724 76.1959 93.5572 76.3208 93.797C76.4507 94.0369 76.6306 94.2217 76.8604 94.3516C77.0952 94.4765 77.3675 94.539 77.6773 94.539C77.9871 94.539 78.2544 94.4765 78.4792 94.3516C78.709 94.2217 78.8839 94.0369 79.0038 93.797C79.1287 93.5572 79.1912 93.2724 79.1912 92.9427ZM81.1323 88.0562C81.1323 88.6108 80.9849 89.1029 80.6901 89.5326C80.3953 89.9573 79.9856 90.2896 79.461 90.5294C78.9414 90.7692 78.3468 90.8891 77.6773 90.8891C77.0028 90.8891 76.4032 90.7692 75.8786 90.5294C75.354 90.2896 74.9443 89.9573 74.6495 89.5326C74.3547 89.1029 74.2073 88.6108 74.2073 88.0562C74.2073 87.3967 74.3547 86.8421 74.6495 86.3924C74.9493 85.9377 75.359 85.593 75.8786 85.3582C76.4032 85.1233 76.9978 85.0059 77.6623 85.0059C78.3368 85.0059 78.9339 85.1233 79.4535 85.3582C79.9781 85.593 80.3878 85.9377 80.6826 86.3924C80.9824 86.8421 81.1323 87.3967 81.1323 88.0562ZM78.9739 88.1536C78.9739 87.8588 78.9214 87.604 78.8165 87.3892C78.7115 87.1693 78.5617 86.9995 78.3668 86.8796C78.1769 86.7596 77.9421 86.6997 77.6623 86.6997C77.3925 86.6997 77.1602 86.7571 76.9653 86.8721C76.7755 86.987 76.6281 87.1544 76.5231 87.3742C76.4232 87.589 76.3732 87.8489 76.3732 88.1536C76.3732 88.4484 76.4232 88.7082 76.5231 88.9331C76.6281 89.1529 76.778 89.3253 76.9728 89.4502C77.1677 89.5751 77.4025 89.6376 77.6773 89.6376C77.9521 89.6376 78.1844 89.5751 78.3743 89.4502C78.5691 89.3253 78.7165 89.1529 78.8165 88.9331C78.9214 88.7082 78.9739 88.4484 78.9739 88.1536ZM82.7961 87.8389V87.2618C82.7961 86.8471 82.886 86.4699 83.0659 86.1301C83.2457 85.7904 83.5106 85.5181 83.8603 85.3132C84.21 85.1083 84.6397 85.0059 85.1494 85.0059C85.674 85.0059 86.1112 85.1083 86.4609 85.3132C86.8156 85.5181 87.0805 85.7904 87.2553 86.1301C87.4352 86.4699 87.5251 86.8471 87.5251 87.2618V87.8389C87.5251 88.2436 87.4352 88.6158 87.2553 88.9556C87.0805 89.2953 86.8181 89.5676 86.4684 89.7725C86.1187 89.9773 85.684 90.0797 85.1644 90.0797C84.6497 90.0797 84.215 89.9773 83.8603 89.7725C83.5106 89.5676 83.2457 89.2953 83.0659 88.9556C82.886 88.6158 82.7961 88.2436 82.7961 87.8389ZM84.2275 87.2618V87.8389C84.2275 88.0137 84.26 88.1811 84.325 88.341C84.3949 88.4959 84.4998 88.6233 84.6397 88.7232C84.7846 88.8182 84.9595 88.8656 85.1644 88.8656C85.3792 88.8656 85.5541 88.8182 85.689 88.7232C85.8239 88.6233 85.9238 88.4959 85.9888 88.341C86.0537 88.1811 86.0862 88.0137 86.0862 87.8389V87.2618C86.0862 87.0769 86.0512 86.907 85.9813 86.7522C85.9163 86.5923 85.8139 86.4649 85.674 86.3699C85.5391 86.27 85.3642 86.22 85.1494 86.22C84.9495 86.22 84.7796 86.27 84.6397 86.3699C84.4998 86.4649 84.3949 86.5923 84.325 86.7522C84.26 86.907 84.2275 87.0769 84.2275 87.2618ZM88.0123 93.9769V93.3998C88.0123 92.9901 88.1022 92.6154 88.2821 92.2756C88.4669 91.9359 88.7343 91.6636 89.084 91.4587C89.4387 91.2539 89.8734 91.1515 90.3881 91.1515C90.9077 91.1515 91.3424 91.2539 91.6921 91.4587C92.0418 91.6636 92.3067 91.9359 92.4865 92.2756C92.6664 92.6154 92.7563 92.9901 92.7563 93.3998V93.9769C92.7563 94.3866 92.6664 94.7613 92.4865 95.1011C92.3117 95.4408 92.0493 95.7131 91.6996 95.918C91.3499 96.1228 90.9177 96.2253 90.403 96.2253C89.8834 96.2253 89.4462 96.1228 89.0915 95.918C88.7368 95.7131 88.4669 95.4408 88.2821 95.1011C88.1022 94.7613 88.0123 94.3866 88.0123 93.9769ZM89.4512 93.3998V93.9769C89.4512 94.1568 89.4912 94.3266 89.5711 94.4865C89.6511 94.6464 89.761 94.7738 89.9009 94.8687C90.0458 94.9637 90.2132 95.0111 90.403 95.0111C90.6429 95.0111 90.8302 94.9637 90.9651 94.8687C91.1 94.7738 91.1925 94.6464 91.2424 94.4865C91.2974 94.3266 91.3249 94.1568 91.3249 93.9769V93.3998C91.3249 93.2199 91.2899 93.0526 91.2199 92.8977C91.15 92.7378 91.0451 92.6104 90.9052 92.5155C90.7703 92.4155 90.5979 92.3656 90.3881 92.3656C90.1782 92.3656 90.0033 92.4155 89.8634 92.5155C89.7285 92.6104 89.6261 92.7378 89.5562 92.8977C89.4862 93.0526 89.4512 93.2199 89.4512 93.3998ZM90.9202 86.7222L85.5915 95.251L84.5423 94.6964L89.8709 86.1676L90.9202 86.7222Z" fill="#0FB492"/>
<path d="M66.7614 73.5125C66.7614 73.3526 66.7214 73.2083 66.6415 73.0795C66.5615 72.9463 66.4083 72.8263 66.1818 72.7197C65.9598 72.6131 65.6311 72.5155 65.1959 72.4267C64.8139 72.3423 64.4631 72.2422 64.1433 72.1268C63.828 72.0069 63.5571 71.8625 63.3306 71.6938C63.1041 71.525 62.9286 71.3252 62.8043 71.0943C62.6799 70.8633 62.6177 70.5969 62.6177 70.2949C62.6177 70.0018 62.6821 69.7242 62.8109 69.4621C62.9397 69.2001 63.124 68.9691 63.3639 68.7692C63.6037 68.5694 63.8946 68.4117 64.2366 68.2962C64.583 68.1808 64.9694 68.123 65.3957 68.123C65.9997 68.123 66.5171 68.2253 66.9479 68.4296C67.3832 68.6294 67.7163 68.9024 67.9472 69.2489C68.1781 69.5908 68.2936 69.9773 68.2936 70.4081H66.6881C66.6881 70.2171 66.6393 70.0395 66.5416 69.8752C66.4483 69.7064 66.3062 69.571 66.1152 69.4688C65.9242 69.3621 65.6844 69.3089 65.3957 69.3089C65.1204 69.3089 64.8916 69.3532 64.7096 69.4421C64.5319 69.5264 64.3987 69.6375 64.3098 69.7751C64.2255 69.9128 64.1833 70.0638 64.1833 70.2282C64.1833 70.3481 64.2055 70.4569 64.2499 70.5546C64.2987 70.6478 64.3787 70.7346 64.4897 70.8145C64.6007 70.89 64.7517 70.961 64.9427 71.0276C65.1381 71.0942 65.3824 71.1586 65.6755 71.2208C66.2262 71.3362 66.6992 71.4851 67.0945 71.6672C67.4942 71.8449 67.8006 72.0757 68.0138 72.3599C68.227 72.6397 68.3336 72.995 68.3336 73.4258C68.3336 73.7456 68.2647 74.0388 68.1271 74.3053C67.9938 74.5673 67.7984 74.7959 67.5408 74.9914C67.2832 75.1823 66.9746 75.3312 66.6148 75.4378C66.2595 75.5444 65.8598 75.5976 65.4157 75.5976C64.7628 75.5976 64.2099 75.4822 63.7569 75.2513C63.3039 75.0159 62.9597 74.7161 62.7243 74.3519C62.4934 73.9833 62.3779 73.6013 62.3779 73.206H63.9301C63.9479 73.5035 64.03 73.7412 64.1766 73.9188C64.3276 74.092 64.5141 74.2187 64.7362 74.2986C64.9627 74.3741 65.1959 74.4118 65.4357 74.4118C65.7244 74.4118 65.9664 74.3741 66.1618 74.2986C66.3572 74.2187 66.506 74.1121 66.6082 73.9789C66.7103 73.8412 66.7614 73.6857 66.7614 73.5125ZM72.6838 74.3186C72.9458 74.3186 73.1812 74.2675 73.3899 74.1654C73.6031 74.0588 73.7741 73.9121 73.9029 73.7256C74.0361 73.5391 74.1094 73.3238 74.1227 73.0795H75.6349C75.6261 73.5458 75.4884 73.97 75.2219 74.3519C74.9554 74.7339 74.6024 75.038 74.1627 75.2645C73.723 75.4865 73.2367 75.5976 72.7037 75.5976C72.153 75.5976 71.6734 75.5043 71.2648 75.3178C70.8562 75.1268 70.5164 74.8649 70.2455 74.5318C69.9746 74.1987 69.7703 73.8144 69.6326 73.3792C69.4994 72.944 69.4328 72.4776 69.4328 71.9802V71.747C69.4328 71.2496 69.4994 70.7834 69.6326 70.3482C69.7703 69.9085 69.9746 69.522 70.2455 69.1889C70.5164 68.8558 70.8562 68.5961 71.2648 68.4096C71.6734 68.2186 72.1508 68.123 72.6971 68.123C73.2744 68.123 73.7807 68.2386 74.216 68.4695C74.6512 68.696 74.9932 69.0135 75.2419 69.4221C75.495 69.8262 75.6261 70.297 75.6349 70.8344H74.1227C74.1094 70.5679 74.0428 70.3282 73.9229 70.115C73.8074 69.8974 73.6431 69.7242 73.4299 69.5954C73.2211 69.4666 72.9702 69.4022 72.6771 69.4022C72.3529 69.4022 72.0842 69.4688 71.871 69.602C71.6578 69.7308 71.4913 69.9084 71.3714 70.1349C71.2515 70.3569 71.1649 70.6079 71.1116 70.8877C71.0627 71.163 71.0383 71.4495 71.0383 71.747V71.9802C71.0383 72.2778 71.0627 72.5666 71.1116 72.8463C71.1604 73.1261 71.2448 73.3771 71.3647 73.5991C71.4891 73.8168 71.6578 73.9922 71.871 74.1254C72.0842 74.2542 72.3551 74.3186 72.6838 74.3186ZM76.5609 71.9402V71.787C76.5609 71.2674 76.6364 70.7856 76.7874 70.3415C76.9384 69.8929 77.1561 69.5043 77.4403 69.1757C77.729 68.8426 78.0798 68.5849 78.4929 68.4028C78.9103 68.2163 79.3811 68.123 79.9052 68.123C80.4337 68.123 80.9044 68.2163 81.3175 68.4028C81.7349 68.5849 82.088 68.8426 82.3767 69.1757C82.6654 69.5043 82.8852 69.8929 83.0362 70.3415C83.1872 70.7856 83.2627 71.2674 83.2627 71.787V71.9402C83.2627 72.4599 83.1872 72.9417 83.0362 73.3859C82.8852 73.83 82.6654 74.2187 82.3767 74.5518C82.088 74.8804 81.7372 75.1379 81.3241 75.3244C80.9111 75.5065 80.4426 75.5976 79.9185 75.5976C79.39 75.5976 78.917 75.5065 78.4995 75.3244C78.0865 75.1379 77.7356 74.8804 77.447 74.5518C77.1583 74.2187 76.9384 73.83 76.7874 73.3859C76.6364 72.9417 76.5609 72.4599 76.5609 71.9402ZM78.1664 71.787V71.9402C78.1664 72.2644 78.1997 72.5709 78.2664 72.8596C78.333 73.1483 78.4373 73.4014 78.5795 73.619C78.7216 73.8366 78.9037 74.0076 79.1257 74.132C79.3478 74.2563 79.612 74.3186 79.9185 74.3186C80.2161 74.3186 80.4736 74.2563 80.6913 74.132C80.9133 74.0076 81.0954 73.8366 81.2375 73.619C81.3797 73.4014 81.484 73.1483 81.5506 72.8596C81.6217 72.5709 81.6572 72.2644 81.6572 71.9402V71.787C81.6572 71.4673 81.6217 71.1653 81.5506 70.8811C81.484 70.5924 81.3774 70.3371 81.2309 70.115C81.0888 69.8929 80.9067 69.7197 80.6846 69.5954C80.467 69.4666 80.2072 69.4022 79.9052 69.4022C79.6032 69.4022 79.3411 69.4666 79.1191 69.5954C78.9015 69.7197 78.7216 69.8929 78.5795 70.115C78.4373 70.3371 78.333 70.5924 78.2664 70.8811C78.1997 71.1653 78.1664 71.4673 78.1664 71.787ZM86.2206 69.6286V75.4643H84.6151V68.2563H86.1473L86.2206 69.6286ZM88.4256 68.2096L88.4123 69.702C88.3146 69.6842 88.208 69.6708 88.0925 69.6619C87.9815 69.653 87.8705 69.6487 87.7595 69.6487C87.4841 69.6487 87.2421 69.6885 87.0333 69.7685C86.8246 69.844 86.6492 69.955 86.507 70.1016C86.3694 70.2437 86.2628 70.4169 86.1873 70.6212C86.1118 70.8255 86.0674 71.0542 86.054 71.3074L85.6876 71.3341C85.6876 70.8811 85.732 70.4614 85.8209 70.075C85.9097 69.6886 86.0429 69.3488 86.2206 69.0557C86.4027 68.7626 86.6292 68.5339 86.9001 68.3696C87.1754 68.2053 87.493 68.123 87.8527 68.123C87.9504 68.123 88.0548 68.1319 88.1658 68.1497C88.2813 68.1674 88.3679 68.1874 88.4256 68.2096ZM92.476 75.5976C91.9431 75.5976 91.4612 75.5111 91.0304 75.3379C90.6041 75.1602 90.2399 74.9137 89.9379 74.5984C89.6403 74.2831 89.4116 73.9121 89.2517 73.4858C89.0918 73.0594 89.0119 72.5998 89.0119 72.1068V71.8403C89.0119 71.2763 89.094 70.7656 89.2584 70.3082C89.4227 69.8507 89.6514 69.4599 89.9445 69.1357C90.2377 68.8071 90.5841 68.5561 90.9838 68.3829C91.3835 68.2097 91.8165 68.123 92.2828 68.123C92.798 68.123 93.2488 68.2097 93.6352 68.3829C94.0216 68.5561 94.3413 68.8003 94.5945 69.1156C94.8521 69.4265 95.043 69.7974 95.1674 70.2282C95.2962 70.6589 95.3606 71.1342 95.3606 71.6538V72.34H89.7913V71.1876H93.7751V71.061C93.7662 70.7723 93.7085 70.5013 93.6019 70.2481C93.4997 69.995 93.3421 69.7907 93.1289 69.6352C92.9157 69.4798 92.6315 69.4022 92.2762 69.4022C92.0097 69.4022 91.7721 69.4598 91.5634 69.5753C91.3591 69.6863 91.1881 69.8485 91.0504 70.0617C90.9127 70.2749 90.8061 70.5324 90.7306 70.8344C90.6596 71.1319 90.624 71.4673 90.624 71.8403V72.1068C90.624 72.4221 90.6662 72.7153 90.7506 72.9862C90.8394 73.2527 90.9682 73.4858 91.137 73.6856C91.3058 73.8855 91.5101 74.0433 91.7499 74.1587C91.9897 74.2698 92.2628 74.3252 92.5693 74.3252C92.9557 74.3252 93.2999 74.2475 93.6019 74.092C93.9039 73.9366 94.1659 73.7167 94.388 73.4325L95.234 74.252C95.0786 74.4785 94.8765 74.696 94.6278 74.9048C94.3791 75.109 94.0749 75.2756 93.7151 75.4044C93.3598 75.5332 92.9468 75.5976 92.476 75.5976Z" fill="#0FB492"/>
<path d="M130.063 86.4393C130.503 75.5764 127.714 64.8265 122.049 55.5476C116.383 46.2687 108.094 38.8772 98.2298 34.3066L93.0146 47.1166C98.1309 49.6747 105.703 56.0858 109.903 62.9638C114.103 69.8419 116.17 77.8103 115.843 85.8626L130.063 86.4393Z" fill="#FF6B6B"/>
<path d="M100.749 28.5602C101.113 27.6914 100.705 26.6897 99.8257 26.3511C93.1032 23.7611 85.96 22.4167 78.7463 22.3891C70.9638 22.3593 63.2516 23.8627 56.05 26.8134C48.8485 29.7641 42.2987 34.1044 36.7745 39.5864C31.6541 44.6677 27.5079 50.6377 24.5355 57.2001C24.1469 58.0581 24.5586 59.0584 25.4274 59.4222L42.3912 66.5251C43.26 66.8889 44.2557 66.4775 44.6586 65.6262C46.516 61.7017 49.0435 58.1259 52.1315 55.0615C55.6235 51.5962 59.7638 48.8526 64.316 46.9874C68.8683 45.1221 73.7433 44.1718 78.6629 44.1907C83.0133 44.2073 87.3232 44.9816 91.4003 46.4745C92.2847 46.7984 93.2828 46.3928 93.6465 45.5241L100.749 28.5602Z" fill="#4DECE3"/>
<path d="M27.8687 60.2188C24.7304 67.6351 23.2591 75.6504 23.5586 83.6979C23.8582 91.7455 25.9213 99.6291 29.6023 106.791C33.2832 113.954 38.4922 120.221 44.8611 125.149C51.2301 130.078 58.6036 133.547 66.4607 135.313C74.3179 137.079 82.4669 137.098 90.3322 135.368C98.1974 133.639 105.587 130.203 111.978 125.304C118.37 120.405 123.608 114.163 127.322 107.017C131.036 99.872 133.135 91.998 133.472 83.952L115.888 83.216C115.659 88.6873 114.231 94.0416 111.705 98.9007C109.18 103.759 105.618 108.004 101.272 111.336C96.9257 114.667 91.9008 117.003 86.5525 118.179C81.2041 119.355 75.6627 119.342 70.3199 118.141C64.977 116.941 59.963 114.581 55.6321 111.23C51.3013 107.879 47.7592 103.617 45.2561 98.747C42.7531 93.8764 41.3501 88.5156 41.1465 83.0433C40.9428 77.5709 41.9433 72.1205 44.0773 67.0773L27.8687 60.2188Z" fill="#20B2AA"/>
<path d="M22.9067 155.272C22.9067 155.152 22.8767 155.044 22.8168 154.948C22.7568 154.848 22.6419 154.758 22.472 154.678C22.3055 154.598 22.059 154.525 21.7326 154.458C21.4461 154.395 21.183 154.32 20.9432 154.233C20.7067 154.143 20.5035 154.035 20.3336 153.908C20.1637 153.782 20.0322 153.632 19.9389 153.459C19.8456 153.286 19.799 153.086 19.799 152.859C19.799 152.639 19.8473 152.431 19.9439 152.235C20.0405 152.038 20.1787 151.865 20.3586 151.715C20.5384 151.565 20.7566 151.447 21.0131 151.36C21.2729 151.274 21.5627 151.23 21.8825 151.23C22.3355 151.23 22.7235 151.307 23.0466 151.46C23.3731 151.61 23.6229 151.815 23.7961 152.075C23.9693 152.331 24.0559 152.621 24.0559 152.944H22.8518C22.8518 152.801 22.8151 152.668 22.7418 152.544C22.6719 152.418 22.5653 152.316 22.4221 152.24C22.2788 152.16 22.099 152.12 21.8825 152.12C21.676 152.12 21.5044 152.153 21.3678 152.22C21.2346 152.283 21.1347 152.366 21.0681 152.469C21.0048 152.573 20.9731 152.686 20.9731 152.809C20.9731 152.899 20.9898 152.981 21.0231 153.054C21.0597 153.124 21.1197 153.189 21.203 153.249C21.2862 153.305 21.3995 153.359 21.5427 153.409C21.6893 153.459 21.8725 153.507 22.0923 153.554C22.5054 153.64 22.8601 153.752 23.1565 153.888C23.4563 154.022 23.6862 154.195 23.846 154.408C24.0059 154.618 24.0859 154.884 24.0859 155.207C24.0859 155.447 24.0342 155.667 23.931 155.867C23.8311 156.063 23.6845 156.235 23.4913 156.382C23.2981 156.525 23.0666 156.636 22.7968 156.716C22.5303 156.796 22.2306 156.836 21.8975 156.836C21.4078 156.836 20.9931 156.75 20.6534 156.576C20.3136 156.4 20.0555 156.175 19.8789 155.902C19.7057 155.625 19.6191 155.339 19.6191 155.043H20.7833C20.7966 155.266 20.8582 155.444 20.9681 155.577C21.0814 155.707 21.2213 155.802 21.3878 155.862C21.5577 155.919 21.7326 155.947 21.9124 155.947C22.129 155.947 22.3105 155.919 22.4571 155.862C22.6036 155.802 22.7152 155.722 22.7918 155.622C22.8684 155.519 22.9067 155.402 22.9067 155.272ZM27.3485 155.877C27.545 155.877 27.7216 155.839 27.8781 155.762C28.038 155.682 28.1662 155.572 28.2628 155.432C28.3628 155.292 28.4177 155.131 28.4277 154.948H29.5619C29.5552 155.297 29.452 155.615 29.2521 155.902C29.0523 156.188 28.7874 156.417 28.4577 156.586C28.1279 156.753 27.7632 156.836 27.3635 156.836C26.9505 156.836 26.5907 156.766 26.2843 156.626C25.9778 156.483 25.723 156.287 25.5198 156.037C25.3166 155.787 25.1634 155.499 25.0602 155.172C24.9602 154.846 24.9103 154.496 24.9103 154.123V153.948C24.9103 153.575 24.9602 153.226 25.0602 152.899C25.1634 152.569 25.3166 152.28 25.5198 152.03C25.723 151.78 25.9778 151.585 26.2843 151.445C26.5907 151.302 26.9488 151.23 27.3585 151.23C27.7915 151.23 28.1712 151.317 28.4977 151.49C28.8241 151.66 29.0806 151.898 29.2671 152.205C29.457 152.508 29.5552 152.861 29.5619 153.264H28.4277C28.4177 153.064 28.3678 152.884 28.2778 152.724C28.1912 152.561 28.068 152.431 27.9081 152.335C27.7515 152.238 27.5633 152.19 27.3435 152.19C27.1003 152.19 26.8988 152.24 26.7389 152.34C26.5791 152.436 26.4541 152.569 26.3642 152.739C26.2743 152.906 26.2093 153.094 26.1694 153.304C26.1327 153.51 26.1144 153.725 26.1144 153.948V154.123C26.1144 154.346 26.1327 154.563 26.1694 154.773C26.206 154.983 26.2693 155.171 26.3592 155.337C26.4525 155.501 26.5791 155.632 26.7389 155.732C26.8988 155.829 27.102 155.877 27.3485 155.877ZM30.2564 154.093V153.978C30.2564 153.589 30.313 153.227 30.4263 152.894C30.5395 152.558 30.7027 152.266 30.9159 152.02C31.1324 151.77 31.3956 151.577 31.7053 151.44C32.0184 151.3 32.3715 151.23 32.7646 151.23C33.1609 151.23 33.514 151.3 33.8238 151.44C34.1369 151.577 34.4017 151.77 34.6182 152.02C34.8347 152.266 34.9996 152.558 35.1128 152.894C35.2261 153.227 35.2827 153.589 35.2827 153.978V154.093C35.2827 154.483 35.2261 154.844 35.1128 155.177C34.9996 155.511 34.8347 155.802 34.6182 156.052C34.4017 156.298 34.1386 156.492 33.8288 156.631C33.519 156.768 33.1676 156.836 32.7745 156.836C32.3782 156.836 32.0234 156.768 31.7103 156.631C31.4005 156.492 31.1374 156.298 30.9209 156.052C30.7044 155.802 30.5395 155.511 30.4263 155.177C30.313 154.844 30.2564 154.483 30.2564 154.093ZM31.4605 153.978V154.093C31.4605 154.336 31.4855 154.566 31.5354 154.783C31.5854 154.999 31.6637 155.189 31.7703 155.352C31.8769 155.516 32.0134 155.644 32.18 155.737C32.3465 155.83 32.5447 155.877 32.7745 155.877C32.9977 155.877 33.1909 155.83 33.3541 155.737C33.5207 155.644 33.6572 155.516 33.7638 155.352C33.8704 155.189 33.9487 154.999 33.9987 154.783C34.052 154.566 34.0786 154.336 34.0786 154.093V153.978C34.0786 153.739 34.052 153.512 33.9987 153.299C33.9487 153.082 33.8688 152.891 33.7588 152.724C33.6522 152.558 33.5157 152.428 33.3491 152.335C33.1859 152.238 32.9911 152.19 32.7646 152.19C32.5381 152.19 32.3415 152.238 32.175 152.335C32.0118 152.428 31.8769 152.558 31.7703 152.724C31.6637 152.891 31.5854 153.082 31.5354 153.299C31.4855 153.512 31.4605 153.739 31.4605 153.978ZM37.5011 152.36V156.736H36.297V151.33H37.4462L37.5011 152.36ZM39.1549 151.295L39.1449 152.414C39.0716 152.401 38.9917 152.391 38.9051 152.384C38.8218 152.378 38.7385 152.375 38.6553 152.375C38.4488 152.375 38.2672 152.404 38.1107 152.464C37.9541 152.521 37.8225 152.604 37.716 152.714C37.6127 152.821 37.5328 152.951 37.4761 153.104C37.4195 153.257 37.3862 153.429 37.3762 153.619L37.1014 153.639C37.1014 153.299 37.1347 152.984 37.2013 152.694C37.2679 152.404 37.3679 152.15 37.5011 151.93C37.6377 151.71 37.8076 151.538 38.0107 151.415C38.2173 151.292 38.4554 151.23 38.7252 151.23C38.7985 151.23 38.8768 151.237 38.96 151.25C39.0467 151.264 39.1116 151.279 39.1549 151.295ZM42.1927 156.836C41.793 156.836 41.4316 156.771 41.1085 156.641C40.7887 156.508 40.5156 156.323 40.2891 156.087C40.0659 155.85 39.8944 155.572 39.7745 155.252C39.6545 154.933 39.5946 154.588 39.5946 154.218V154.018C39.5946 153.595 39.6562 153.212 39.7795 152.869C39.9027 152.526 40.0742 152.233 40.2941 151.99C40.5139 151.743 40.7737 151.555 41.0735 151.425C41.3733 151.295 41.6981 151.23 42.0478 151.23C42.4342 151.23 42.7723 151.295 43.0621 151.425C43.3519 151.555 43.5917 151.738 43.7815 151.975C43.9747 152.208 44.118 152.486 44.2112 152.809C44.3078 153.132 44.3561 153.489 44.3561 153.878V154.393H40.1792V153.529H43.167V153.434C43.1603 153.217 43.117 153.014 43.0371 152.824C42.9605 152.634 42.8422 152.481 42.6823 152.365C42.5225 152.248 42.3093 152.19 42.0428 152.19C41.843 152.19 41.6647 152.233 41.5082 152.32C41.355 152.403 41.2267 152.524 41.1235 152.684C41.0202 152.844 40.9403 153.037 40.8837 153.264C40.8304 153.487 40.8037 153.739 40.8037 154.018V154.218C40.8037 154.455 40.8354 154.674 40.8986 154.878C40.9653 155.078 41.0619 155.252 41.1884 155.402C41.315 155.552 41.4682 155.67 41.6481 155.757C41.828 155.84 42.0328 155.882 42.2626 155.882C42.5524 155.882 42.8106 155.824 43.0371 155.707C43.2636 155.59 43.4601 155.426 43.6267 155.212L44.2612 155.827C44.1446 155.997 43.9931 156.16 43.8065 156.317C43.62 156.47 43.3918 156.595 43.122 156.691C42.8555 156.788 42.5458 156.836 42.1927 156.836Z" fill="#0FB492"/>
<path d="M14.9926 150.295H9.87633C8.93445 150.295 8.1709 151.058 8.1709 152V157.117C8.1709 158.059 8.93445 158.822 9.87633 158.822H14.9926C15.9345 158.822 16.698 158.059 16.698 157.117V152C16.698 151.058 15.9345 150.295 14.9926 150.295Z" fill="#FF6B6B"/>
<path d="M76.6284 155.272C76.6284 155.152 76.5984 155.044 76.5385 154.948C76.4785 154.848 76.3636 154.758 76.1937 154.678C76.0272 154.598 75.7807 154.525 75.4543 154.458C75.1678 154.395 74.9047 154.32 74.6648 154.233C74.4283 154.143 74.2252 154.035 74.0553 153.908C73.8854 153.782 73.7538 153.632 73.6606 153.459C73.5673 153.286 73.5207 153.086 73.5207 152.859C73.5207 152.639 73.569 152.431 73.6656 152.235C73.7622 152.038 73.9004 151.865 74.0803 151.715C74.2601 151.565 74.4783 151.447 74.7348 151.36C74.9946 151.274 75.2844 151.23 75.6042 151.23C76.0572 151.23 76.4452 151.307 76.7683 151.46C77.0947 151.61 77.3446 151.815 77.5178 152.075C77.691 152.331 77.7776 152.621 77.7776 152.944H76.5734C76.5734 152.801 76.5368 152.668 76.4635 152.544C76.3936 152.418 76.287 152.316 76.1438 152.24C76.0005 152.16 75.8207 152.12 75.6042 152.12C75.3976 152.12 75.2261 152.153 75.0895 152.22C74.9563 152.283 74.8564 152.366 74.7897 152.469C74.7265 152.573 74.6948 152.686 74.6948 152.809C74.6948 152.899 74.7115 152.981 74.7448 153.054C74.7814 153.124 74.8414 153.189 74.9246 153.249C75.0079 153.305 75.1212 153.359 75.2644 153.409C75.411 153.459 75.5942 153.507 75.814 153.554C76.227 153.64 76.5818 153.752 76.8782 153.888C77.178 154.022 77.4078 154.195 77.5677 154.408C77.7276 154.618 77.8075 154.884 77.8075 155.207C77.8075 155.447 77.7559 155.667 77.6527 155.867C77.5527 156.063 77.4062 156.235 77.213 156.382C77.0198 156.525 76.7883 156.636 76.5185 156.716C76.252 156.796 75.9522 156.836 75.6191 156.836C75.1295 156.836 74.7148 156.75 74.375 156.576C74.0353 156.4 73.7771 156.175 73.6006 155.902C73.4274 155.625 73.3408 155.339 73.3408 155.043H74.505C74.5183 155.266 74.5799 155.444 74.6898 155.577C74.8031 155.707 74.943 155.802 75.1095 155.862C75.2794 155.919 75.4543 155.947 75.6341 155.947C75.8506 155.947 76.0322 155.919 76.1787 155.862C76.3253 155.802 76.4369 155.722 76.5135 155.622C76.5901 155.519 76.6284 155.402 76.6284 155.272ZM81.0702 155.877C81.2667 155.877 81.4432 155.839 81.5998 155.762C81.7597 155.682 81.8879 155.572 81.9845 155.432C82.0844 155.292 82.1394 155.131 82.1494 154.948H83.2836C83.2769 155.297 83.1736 155.615 82.9738 155.902C82.7739 156.188 82.5091 156.417 82.1794 156.586C81.8496 156.753 81.4849 156.836 81.0852 156.836C80.6721 156.836 80.3124 156.766 80.0059 156.626C79.6995 156.483 79.4447 156.287 79.2415 156.037C79.0383 155.787 78.8851 155.499 78.7818 155.172C78.6819 154.846 78.6319 154.496 78.6319 154.123V153.948C78.6319 153.575 78.6819 153.226 78.7818 152.899C78.8851 152.569 79.0383 152.28 79.2415 152.03C79.4447 151.78 79.6995 151.585 80.0059 151.445C80.3124 151.302 80.6705 151.23 81.0802 151.23C81.5132 151.23 81.8929 151.317 82.2193 151.49C82.5458 151.66 82.8022 151.898 82.9888 152.205C83.1786 152.508 83.2769 152.861 83.2836 153.264H82.1494C82.1394 153.064 82.0894 152.884 81.9995 152.724C81.9129 152.561 81.7897 152.431 81.6298 152.335C81.4732 152.238 81.285 152.19 81.0652 152.19C80.822 152.19 80.6205 152.24 80.4606 152.34C80.3007 152.436 80.1758 152.569 80.0859 152.739C79.996 152.906 79.931 153.094 79.891 153.304C79.8544 153.51 79.8361 153.725 79.8361 153.948V154.123C79.8361 154.346 79.8544 154.563 79.891 154.773C79.9277 154.983 79.991 155.171 80.0809 155.337C80.1742 155.501 80.3007 155.632 80.4606 155.732C80.6205 155.829 80.8237 155.877 81.0702 155.877ZM83.9781 154.093V153.978C83.9781 153.589 84.0347 153.227 84.1479 152.894C84.2612 152.558 84.4244 152.266 84.6376 152.02C84.8541 151.77 85.1172 151.577 85.427 151.44C85.7401 151.3 86.0932 151.23 86.4862 151.23C86.8826 151.23 87.2357 151.3 87.5455 151.44C87.8586 151.577 88.1234 151.77 88.3399 152.02C88.5564 152.266 88.7213 152.558 88.8345 152.894C88.9478 153.227 89.0044 153.589 89.0044 153.978V154.093C89.0044 154.483 88.9478 154.844 88.8345 155.177C88.7213 155.511 88.5564 155.802 88.3399 156.052C88.1234 156.298 87.8602 156.492 87.5505 156.631C87.2407 156.768 86.8893 156.836 86.4962 156.836C86.0998 156.836 85.7451 156.768 85.432 156.631C85.1222 156.492 84.8591 156.298 84.6426 156.052C84.4261 155.802 84.2612 155.511 84.1479 155.177C84.0347 154.844 83.9781 154.483 83.9781 154.093ZM85.1822 153.978V154.093C85.1822 154.336 85.2072 154.566 85.2571 154.783C85.3071 154.999 85.3854 155.189 85.492 155.352C85.5985 155.516 85.7351 155.644 85.9017 155.737C86.0682 155.83 86.2664 155.877 86.4962 155.877C86.7194 155.877 86.9126 155.83 87.0758 155.737C87.2424 155.644 87.3789 155.516 87.4855 155.352C87.5921 155.189 87.6704 154.999 87.7203 154.783C87.7736 154.566 87.8003 154.336 87.8003 154.093V153.978C87.8003 153.739 87.7736 153.512 87.7203 153.299C87.6704 153.082 87.5904 152.891 87.4805 152.724C87.3739 152.558 87.2374 152.428 87.0708 152.335C86.9076 152.238 86.7127 152.19 86.4862 152.19C86.2597 152.19 86.0632 152.238 85.8967 152.335C85.7334 152.428 85.5985 152.558 85.492 152.724C85.3854 152.891 85.3071 153.082 85.2571 153.299C85.2072 153.512 85.1822 153.739 85.1822 153.978ZM91.2228 152.36V156.736H90.0187V151.33H91.1678L91.2228 152.36ZM92.8766 151.295L92.8666 152.414C92.7933 152.401 92.7134 152.391 92.6268 152.384C92.5435 152.378 92.4602 152.375 92.377 152.375C92.1704 152.375 91.9889 152.404 91.8323 152.464C91.6758 152.521 91.5442 152.604 91.4376 152.714C91.3344 152.821 91.2544 152.951 91.1978 153.104C91.1412 153.257 91.1079 153.429 91.0979 153.619L90.8231 153.639C90.8231 153.299 90.8564 152.984 90.923 152.694C90.9896 152.404 91.0896 152.15 91.2228 151.93C91.3594 151.71 91.5292 151.538 91.7324 151.415C91.9389 151.292 92.1771 151.23 92.4469 151.23C92.5202 151.23 92.5985 151.237 92.6817 151.25C92.7683 151.264 92.8333 151.279 92.8766 151.295ZM95.9144 156.836C95.5147 156.836 95.1533 156.771 94.8302 156.641C94.5104 156.508 94.2373 156.323 94.0108 156.087C93.7876 155.85 93.616 155.572 93.4961 155.252C93.3762 154.933 93.3163 154.588 93.3163 154.218V154.018C93.3163 153.595 93.3779 153.212 93.5011 152.869C93.6244 152.526 93.7959 152.233 94.0158 151.99C94.2356 151.743 94.4954 151.555 94.7952 151.425C95.095 151.295 95.4197 151.23 95.7695 151.23C96.1559 151.23 96.494 151.295 96.7837 151.425C97.0735 151.555 97.3134 151.738 97.5032 151.975C97.6964 152.208 97.8396 152.486 97.9329 152.809C98.0295 153.132 98.0778 153.489 98.0778 153.878V154.393H93.9008V153.529H96.8887V153.434C96.882 153.217 96.8387 153.014 96.7588 152.824C96.6822 152.634 96.5639 152.481 96.404 152.365C96.2441 152.248 96.031 152.19 95.7645 152.19C95.5646 152.19 95.3864 152.233 95.2299 152.32C95.0767 152.403 94.9484 152.524 94.8452 152.684C94.7419 152.844 94.662 153.037 94.6053 153.264C94.552 153.487 94.5254 153.739 94.5254 154.018V154.218C94.5254 154.455 94.557 154.674 94.6203 154.878C94.6869 155.078 94.7835 155.252 94.9101 155.402C95.0367 155.552 95.1899 155.67 95.3698 155.757C95.5496 155.84 95.7545 155.882 95.9843 155.882C96.2741 155.882 96.5323 155.824 96.7588 155.707C96.9853 155.59 97.1818 155.426 97.3483 155.212L97.9829 155.827C97.8663 155.997 97.7147 156.16 97.5282 156.317C97.3417 156.47 97.1135 156.595 96.8437 156.691C96.5772 156.788 96.2675 156.836 95.9144 156.836Z" fill="#0FB492"/>
<path d="M68.7133 150.295H63.597C62.6551 150.295 61.8916 151.058 61.8916 152V157.117C61.8916 158.059 62.6551 158.822 63.597 158.822H68.7133C69.6552 158.822 70.4187 158.059 70.4187 157.117V152C70.4187 151.058 69.6552 150.295 68.7133 150.295Z" fill="#E28D0D"/>
<path d="M129.498 155.272C129.498 155.152 129.468 155.044 129.408 154.948C129.348 154.848 129.233 154.758 129.063 154.678C128.897 154.598 128.65 154.525 128.324 154.458C128.037 154.395 127.774 154.32 127.534 154.233C127.298 154.143 127.095 154.035 126.925 153.908C126.755 153.782 126.623 153.632 126.53 153.459C126.437 153.286 126.39 153.086 126.39 152.859C126.39 152.639 126.439 152.431 126.535 152.235C126.632 152.038 126.77 151.865 126.95 151.715C127.13 151.565 127.348 151.447 127.604 151.36C127.864 151.274 128.154 151.23 128.474 151.23C128.927 151.23 129.315 151.307 129.638 151.46C129.964 151.61 130.214 151.815 130.387 152.075C130.561 152.331 130.647 152.621 130.647 152.944H129.443C129.443 152.801 129.406 152.668 129.333 152.544C129.263 152.418 129.157 152.316 129.013 152.24C128.87 152.16 128.69 152.12 128.474 152.12C128.267 152.12 128.096 152.153 127.959 152.22C127.826 152.283 127.726 152.366 127.659 152.469C127.596 152.573 127.564 152.686 127.564 152.809C127.564 152.899 127.581 152.981 127.614 153.054C127.651 153.124 127.711 153.189 127.794 153.249C127.878 153.305 127.991 153.359 128.134 153.409C128.281 153.459 128.464 153.507 128.684 153.554C129.097 153.64 129.451 153.752 129.748 153.888C130.048 154.022 130.277 154.195 130.437 154.408C130.597 154.618 130.677 154.884 130.677 155.207C130.677 155.447 130.626 155.667 130.522 155.867C130.422 156.063 130.276 156.235 130.083 156.382C129.889 156.525 129.658 156.636 129.388 156.716C129.122 156.796 128.822 156.836 128.489 156.836C127.999 156.836 127.584 156.75 127.245 156.576C126.905 156.4 126.647 156.175 126.47 155.902C126.297 155.625 126.21 155.339 126.21 155.043H127.375C127.388 155.266 127.45 155.444 127.559 155.577C127.673 155.707 127.813 155.802 127.979 155.862C128.149 155.919 128.324 155.947 128.504 155.947C128.72 155.947 128.902 155.919 129.048 155.862C129.195 155.802 129.307 155.722 129.383 155.622C129.46 155.519 129.498 155.402 129.498 155.272ZM133.94 155.877C134.136 155.877 134.313 155.839 134.469 155.762C134.629 155.682 134.758 155.572 134.854 155.432C134.954 155.292 135.009 155.131 135.019 154.948H136.153C136.147 155.297 136.043 155.615 135.843 155.902C135.644 156.188 135.379 156.417 135.049 156.586C134.719 156.753 134.355 156.836 133.955 156.836C133.542 156.836 133.182 156.766 132.876 156.626C132.569 156.483 132.314 156.287 132.111 156.037C131.908 155.787 131.755 155.499 131.651 155.172C131.552 154.846 131.502 154.496 131.502 154.123V153.948C131.502 153.575 131.552 153.226 131.651 152.899C131.755 152.569 131.908 152.28 132.111 152.03C132.314 151.78 132.569 151.585 132.876 151.445C133.182 151.302 133.54 151.23 133.95 151.23C134.383 151.23 134.763 151.317 135.089 151.49C135.415 151.66 135.672 151.898 135.858 152.205C136.048 152.508 136.147 152.861 136.153 153.264H135.019C135.009 153.064 134.959 152.884 134.869 152.724C134.783 152.561 134.659 152.431 134.499 152.335C134.343 152.238 134.155 152.19 133.935 152.19C133.692 152.19 133.49 152.24 133.33 152.34C133.17 152.436 133.045 152.569 132.956 152.739C132.866 152.906 132.801 153.094 132.761 153.304C132.724 153.51 132.706 153.725 132.706 153.948V154.123C132.706 154.346 132.724 154.563 132.761 154.773C132.797 154.983 132.861 155.171 132.951 155.337C133.044 155.501 133.17 155.632 133.33 155.732C133.49 155.829 133.693 155.877 133.94 155.877ZM136.848 154.093V153.978C136.848 153.589 136.904 153.227 137.018 152.894C137.131 152.558 137.294 152.266 137.507 152.02C137.724 151.77 137.987 151.577 138.297 151.44C138.61 151.3 138.963 151.23 139.356 151.23C139.752 151.23 140.105 151.3 140.415 151.44C140.728 151.577 140.993 151.77 141.21 152.02C141.426 152.266 141.591 152.558 141.704 152.894C141.817 153.227 141.874 153.589 141.874 153.978V154.093C141.874 154.483 141.817 154.844 141.704 155.177C141.591 155.511 141.426 155.802 141.21 156.052C140.993 156.298 140.73 156.492 140.42 156.631C140.11 156.768 139.759 156.836 139.366 156.836C138.969 156.836 138.615 156.768 138.302 156.631C137.992 156.492 137.729 156.298 137.512 156.052C137.296 155.802 137.131 155.511 137.018 155.177C136.904 154.844 136.848 154.483 136.848 154.093ZM138.052 153.978V154.093C138.052 154.336 138.077 154.566 138.127 154.783C138.177 154.999 138.255 155.189 138.362 155.352C138.468 155.516 138.605 155.644 138.771 155.737C138.938 155.83 139.136 155.877 139.366 155.877C139.589 155.877 139.782 155.83 139.945 155.737C140.112 155.644 140.249 155.516 140.355 155.352C140.462 155.189 140.54 154.999 140.59 154.783C140.643 154.566 140.67 154.336 140.67 154.093V153.978C140.67 153.739 140.643 153.512 140.59 153.299C140.54 153.082 140.46 152.891 140.35 152.724C140.244 152.558 140.107 152.428 139.94 152.335C139.777 152.238 139.582 152.19 139.356 152.19C139.129 152.19 138.933 152.238 138.766 152.335C138.603 152.428 138.468 152.558 138.362 152.724C138.255 152.891 138.177 153.082 138.127 153.299C138.077 153.512 138.052 153.739 138.052 153.978ZM144.092 152.36V156.736H142.888V151.33H144.037L144.092 152.36ZM145.746 151.295L145.736 152.414C145.663 152.401 145.583 152.391 145.496 152.384C145.413 152.378 145.33 152.375 145.247 152.375C145.04 152.375 144.859 152.404 144.702 152.464C144.545 152.521 144.414 152.604 144.307 152.714C144.204 152.821 144.124 152.951 144.067 153.104C144.011 153.257 143.978 153.429 143.968 153.619L143.693 153.639C143.693 153.299 143.726 152.984 143.793 152.694C143.859 152.404 143.959 152.15 144.092 151.93C144.229 151.71 144.399 151.538 144.602 151.415C144.809 151.292 145.047 151.23 145.317 151.23C145.39 151.23 145.468 151.237 145.551 151.25C145.638 151.264 145.703 151.279 145.746 151.295ZM148.784 156.836C148.384 156.836 148.023 156.771 147.7 156.641C147.38 156.508 147.107 156.323 146.88 156.087C146.657 155.85 146.486 155.572 146.366 155.252C146.246 154.933 146.186 154.588 146.186 154.218V154.018C146.186 153.595 146.248 153.212 146.371 152.869C146.494 152.526 146.666 152.233 146.885 151.99C147.105 151.743 147.365 151.555 147.665 151.425C147.965 151.295 148.289 151.23 148.639 151.23C149.026 151.23 149.364 151.295 149.653 151.425C149.943 151.555 150.183 151.738 150.373 151.975C150.566 152.208 150.709 152.486 150.803 152.809C150.899 153.132 150.947 153.489 150.947 153.878V154.393H146.77V153.529H149.758V153.434C149.752 153.217 149.708 153.014 149.628 152.824C149.552 152.634 149.434 152.481 149.274 152.365C149.114 152.248 148.901 152.19 148.634 152.19C148.434 152.19 148.256 152.233 148.1 152.32C147.946 152.403 147.818 152.524 147.715 152.684C147.612 152.844 147.532 153.037 147.475 153.264C147.422 153.487 147.395 153.739 147.395 154.018V154.218C147.395 154.455 147.427 154.674 147.49 154.878C147.557 155.078 147.653 155.252 147.78 155.402C147.906 155.552 148.06 155.67 148.239 155.757C148.419 155.84 148.624 155.882 148.854 155.882C149.144 155.882 149.402 155.824 149.628 155.707C149.855 155.59 150.051 155.426 150.218 155.212L150.853 155.827C150.736 155.997 150.584 156.16 150.398 156.317C150.211 156.47 149.983 156.595 149.713 156.691C149.447 156.788 149.137 156.836 148.784 156.836Z" fill="#0FB492"/>
<path d="M121.581 150.295H116.465C115.523 150.295 114.76 151.058 114.76 152V157.117C114.76 158.059 115.523 158.822 116.465 158.822H121.581C122.523 158.822 123.287 158.059 123.287 157.117V152C123.287 151.058 122.523 150.295 121.581 150.295Z" fill="#4DECE3"/>
<path d="M4.9065 8.37529L6.92503 0.96068H9.54313L6.27217 10.6603H4.58007L4.9065 8.37529ZM3.0745 0.96068L5.09303 8.37529L5.43278 10.6603H3.7207L0.469727 0.96068H3.0745ZM13.5869 8.84828V5.87711C13.5869 5.67281 13.558 5.49738 13.5003 5.35082C13.4425 5.20426 13.3515 5.09101 13.2271 5.01107C13.1028 4.92669 12.9362 4.8845 12.7275 4.8845C12.5587 4.8845 12.4144 4.91336 12.2945 4.9711C12.1746 5.02884 12.0835 5.11544 12.0213 5.23091C11.9592 5.34638 11.9281 5.49294 11.9281 5.67059H9.68303C9.68303 5.3375 9.75631 5.02884 9.90287 4.7446C10.0539 4.45592 10.2671 4.20499 10.5424 3.99181C10.8222 3.77863 11.1553 3.61431 11.5417 3.49884C11.9325 3.37893 12.3678 3.31897 12.8474 3.31897C13.4203 3.31897 13.9311 3.41445 14.3796 3.60543C14.8326 3.7964 15.1902 4.08286 15.4522 4.4648C15.7142 4.84231 15.8452 5.31752 15.8452 5.89043V8.84162C15.8452 9.31239 15.8719 9.66991 15.9252 9.91417C15.9785 10.154 16.054 10.3649 16.1517 10.547V10.6603H13.9C13.7934 10.4382 13.7134 10.1673 13.6602 9.84755C13.6113 9.52335 13.5869 9.19025 13.5869 8.84828ZM13.86 6.25683L13.8733 7.45596H12.8807C12.672 7.45596 12.4943 7.48483 12.3478 7.54256C12.2057 7.6003 12.0902 7.68024 12.0014 7.78239C11.917 7.8801 11.8548 7.99113 11.8148 8.11548C11.7793 8.23983 11.7615 8.37085 11.7615 8.50853C11.7615 8.64176 11.7926 8.76168 11.8548 8.86827C11.9214 8.97041 12.0102 9.05036 12.1213 9.10809C12.2323 9.16583 12.3567 9.1947 12.4943 9.1947C12.743 9.1947 12.954 9.14806 13.1272 9.0548C13.3049 8.95709 13.4403 8.8394 13.5336 8.70172C13.6268 8.56404 13.6735 8.43525 13.6735 8.31534L14.1665 9.23467C14.0776 9.41231 13.9755 9.59218 13.86 9.77427C13.749 9.95636 13.6091 10.1251 13.4403 10.2805C13.276 10.4315 13.0739 10.5559 12.8341 10.6536C12.5943 10.7469 12.3034 10.7935 11.9614 10.7935C11.5173 10.7935 11.1087 10.7024 10.7356 10.5204C10.367 10.3383 10.0717 10.0851 9.84957 9.76095C9.62751 9.4323 9.51648 9.0548 9.51648 8.62844C9.51648 8.25538 9.5831 7.92229 9.71634 7.62917C9.85401 7.33605 10.0605 7.08734 10.3359 6.88304C10.6113 6.67875 10.9621 6.52331 11.3885 6.41672C11.8148 6.31013 12.3167 6.25683 12.894 6.25683H13.86ZM19.4626 0.427734V10.6603H17.2109V0.427734H19.4626ZM25.0585 8.90824V3.45221H27.3102V10.6603H25.2051L25.0585 8.90824ZM25.2717 7.44264L25.8579 7.42931C25.8579 7.91341 25.8002 8.36197 25.6847 8.775C25.5693 9.18359 25.3983 9.53889 25.1718 9.84089C24.9497 10.1429 24.6744 10.3782 24.3457 10.547C24.0215 10.7113 23.6462 10.7935 23.2199 10.7935C22.8646 10.7935 22.5381 10.7446 22.2406 10.6469C21.9475 10.5448 21.6943 10.3871 21.4811 10.1739C21.268 9.95636 21.1014 9.67879 20.9815 9.34126C20.866 8.99928 20.8083 8.59069 20.8083 8.11548V3.45221H23.0533V8.1288C23.0533 8.28869 23.0733 8.42637 23.1133 8.54184C23.1532 8.65731 23.211 8.75502 23.2865 8.83496C23.362 8.91046 23.4553 8.96819 23.5663 9.00816C23.6818 9.04369 23.8128 9.06146 23.9593 9.06146C24.2969 9.06146 24.5611 8.9904 24.7521 8.84828C24.9431 8.70616 25.0763 8.51297 25.1518 8.2687C25.2317 8.02444 25.2717 7.74908 25.2717 7.44264ZM32.2933 8.84828V5.87711C32.2933 5.67281 32.2644 5.49738 32.2067 5.35082C32.1489 5.20426 32.0579 5.09101 31.9335 5.01107C31.8092 4.92669 31.6426 4.8845 31.4339 4.8845C31.2651 4.8845 31.1208 4.91336 31.0009 4.9711C30.881 5.02884 30.7899 5.11544 30.7277 5.23091C30.6656 5.34638 30.6345 5.49294 30.6345 5.67059H28.3894C28.3894 5.3375 28.4627 5.02884 28.6093 4.7446C28.7603 4.45592 28.9735 4.20499 29.2488 3.99181C29.5286 3.77863 29.8617 3.61431 30.2481 3.49884C30.6389 3.37893 31.0742 3.31897 31.5538 3.31897C32.1267 3.31897 32.6375 3.41445 33.086 3.60543C33.539 3.7964 33.8965 4.08286 34.1586 4.4648C34.4206 4.84231 34.5516 5.31752 34.5516 5.89043V8.84162C34.5516 9.31239 34.5783 9.66991 34.6316 9.91417C34.6849 10.154 34.7604 10.3649 34.8581 10.547V10.6603H32.6064C32.4998 10.4382 32.4198 10.1673 32.3665 9.84755C32.3177 9.52335 32.2933 9.19025 32.2933 8.84828ZM32.5664 6.25683L32.5797 7.45596H31.5871C31.3784 7.45596 31.2007 7.48483 31.0542 7.54256C30.9121 7.6003 30.7966 7.68024 30.7078 7.78239C30.6234 7.8801 30.5612 7.99113 30.5212 8.11548C30.4857 8.23983 30.4679 8.37085 30.4679 8.50853C30.4679 8.64176 30.499 8.76168 30.5612 8.86827C30.6278 8.97041 30.7166 9.05036 30.8277 9.10809C30.9387 9.16583 31.0631 9.1947 31.2007 9.1947C31.4494 9.1947 31.6604 9.14806 31.8336 9.0548C32.0113 8.95709 32.1467 8.8394 32.24 8.70172C32.3332 8.56404 32.3799 8.43525 32.3799 8.31534L32.8728 9.23467C32.784 9.41231 32.6819 9.59218 32.5664 9.77427C32.4554 9.95636 32.3155 10.1251 32.1467 10.2805C31.9824 10.4315 31.7803 10.5559 31.5405 10.6536C31.3007 10.7469 31.0098 10.7935 30.6678 10.7935C30.2237 10.7935 29.8151 10.7024 29.442 10.5204C29.0734 10.3383 28.778 10.0851 28.556 9.76095C28.3339 9.4323 28.2229 9.0548 28.2229 8.62844C28.2229 8.25538 28.2895 7.92229 28.4228 7.62917C28.5604 7.33605 28.7669 7.08734 29.0423 6.88304C29.3177 6.67875 29.6685 6.52331 30.0949 6.41672C30.5212 6.31013 31.0231 6.25683 31.6004 6.25683H32.5664ZM39.5946 3.45221V5.01107H35.2511V3.45221H39.5946ZM36.1638 1.66018H38.4088V8.30867C38.4088 8.49965 38.431 8.64843 38.4754 8.75502C38.5199 8.85716 38.5954 8.93044 38.7019 8.97486C38.813 9.01483 38.9595 9.03481 39.1416 9.03481C39.2704 9.03481 39.377 9.03259 39.4614 9.02815C39.5458 9.01927 39.6257 9.00816 39.7012 8.99484V10.6003C39.5102 10.6625 39.3104 10.7091 39.1017 10.7402C38.8929 10.7757 38.6709 10.7935 38.4355 10.7935C37.9558 10.7935 37.545 10.718 37.203 10.567C36.8655 10.416 36.6079 10.1784 36.4303 9.85422C36.2526 9.53001 36.1638 9.10809 36.1638 8.58847V1.66018ZM42.8589 3.45221V10.6603H40.6072V3.45221H42.8589ZM40.474 1.59356C40.474 1.27379 40.5895 1.01176 40.8204 0.807458C41.0513 0.603162 41.3511 0.501014 41.7197 0.501014C42.0884 0.501014 42.3882 0.603162 42.6191 0.807458C42.85 1.01176 42.9655 1.27379 42.9655 1.59356C42.9655 1.91332 42.85 2.17536 42.6191 2.37965C42.3882 2.58395 42.0884 2.6861 41.7197 2.6861C41.3511 2.6861 41.0513 2.58395 40.8204 2.37965C40.5895 2.17536 40.474 1.91332 40.474 1.59356ZM43.9648 7.12953V6.98963C43.9648 6.46113 44.0403 5.97482 44.1913 5.53069C44.3423 5.08213 44.5643 4.69352 44.8575 4.36487C45.1506 4.03622 45.5125 3.78086 45.9433 3.59877C46.3741 3.41223 46.8716 3.31897 47.4356 3.31897C48.0041 3.31897 48.5037 3.41223 48.9345 3.59877C49.3697 3.78086 49.7339 4.03622 50.027 4.36487C50.3202 4.69352 50.5422 5.08213 50.6932 5.53069C50.8442 5.97482 50.9197 6.46113 50.9197 6.98963V7.12953C50.9197 7.65359 50.8442 8.13991 50.6932 8.58847C50.5422 9.03259 50.3202 9.4212 50.027 9.75429C49.7339 10.0829 49.372 10.3383 48.9412 10.5204C48.5104 10.7024 48.0129 10.7935 47.4489 10.7935C46.8849 10.7935 46.3852 10.7024 45.95 10.5204C45.5148 10.3383 45.1506 10.0829 44.8575 9.75429C44.5643 9.4212 44.3423 9.03259 44.1913 8.58847C44.0403 8.13991 43.9648 7.65359 43.9648 7.12953ZM46.2098 6.98963V7.12953C46.2098 7.40044 46.2298 7.65359 46.2698 7.88898C46.3097 8.12436 46.3764 8.33088 46.4696 8.50853C46.5629 8.68174 46.6895 8.81719 46.8493 8.9149C47.0092 9.01261 47.2091 9.06146 47.4489 9.06146C47.6843 9.06146 47.8797 9.01261 48.0352 8.9149C48.195 8.81719 48.3216 8.68174 48.4149 8.50853C48.5081 8.33088 48.5748 8.12436 48.6147 7.88898C48.6547 7.65359 48.6747 7.40044 48.6747 7.12953V6.98963C48.6747 6.7276 48.6547 6.48111 48.6147 6.25017C48.5748 6.01479 48.5081 5.80827 48.4149 5.63062C48.3216 5.44853 48.195 5.30641 48.0352 5.20426C47.8753 5.10212 47.6754 5.05104 47.4356 5.05104C47.2002 5.05104 47.0026 5.10212 46.8427 5.20426C46.6872 5.30641 46.5629 5.44853 46.4696 5.63062C46.3764 5.80827 46.3097 6.01479 46.2698 6.25017C46.2298 6.48111 46.2098 6.7276 46.2098 6.98963ZM54.1241 4.99109V10.6603H51.879V3.45221H53.9842L54.1241 4.99109ZM53.8576 6.80976L53.3313 6.82309C53.3313 6.27238 53.3979 5.78162 53.5312 5.35082C53.6644 4.91559 53.8531 4.54696 54.0974 4.24496C54.3417 3.94296 54.6326 3.71424 54.9701 3.55879C55.3121 3.39891 55.6918 3.31897 56.1093 3.31897C56.4424 3.31897 56.7466 3.36782 57.022 3.46553C57.3017 3.56324 57.5416 3.7209 57.7414 3.93852C57.9457 4.15614 58.1012 4.44482 58.2078 4.80456C58.3188 5.15985 58.3743 5.59953 58.3743 6.1236V10.6603H56.1159V6.11693C56.1159 5.82825 56.076 5.60841 55.996 5.45741C55.9161 5.30197 55.8006 5.19538 55.6496 5.13765C55.4986 5.07991 55.3143 5.05104 55.0967 5.05104C54.8657 5.05104 54.6703 5.09545 54.5104 5.18428C54.3506 5.2731 54.2218 5.39746 54.1241 5.55734C54.0308 5.71278 53.962 5.89709 53.9175 6.11027C53.8776 6.32345 53.8576 6.55661 53.8576 6.80976ZM71.5181 8.08217C71.5181 7.93117 71.4959 7.79571 71.4515 7.6758C71.407 7.55145 71.3249 7.43597 71.205 7.32939C71.0851 7.2228 70.9118 7.11621 70.6853 7.00962C70.4633 6.89859 70.1702 6.78312 69.806 6.6632C69.3796 6.52108 68.9688 6.3612 68.5735 6.18355C68.1783 6.00146 67.8252 5.7905 67.5143 5.55068C67.2034 5.30641 66.9569 5.02217 66.7749 4.69797C66.5928 4.36932 66.5017 3.98737 66.5017 3.55213C66.5017 3.13466 66.595 2.75938 66.7815 2.42628C66.968 2.08875 67.2279 1.80229 67.561 1.56691C67.8985 1.32708 68.2938 1.14499 68.7468 1.02064C69.1998 0.891841 69.695 0.827444 70.2323 0.827444C70.9429 0.827444 71.5691 0.951798 72.111 1.20051C72.6572 1.44478 73.0836 1.79341 73.39 2.24642C73.7009 2.69498 73.8564 3.2257 73.8564 3.83859H71.5314C71.5314 3.59432 71.4803 3.37893 71.3782 3.19239C71.2805 3.00586 71.1317 2.8593 70.9318 2.75271C70.732 2.64612 70.481 2.59283 70.179 2.59283C69.8859 2.59283 69.6394 2.63724 69.4396 2.72607C69.2397 2.81489 69.0887 2.9348 68.9866 3.08581C68.8844 3.23237 68.8334 3.39447 68.8334 3.57212C68.8334 3.71868 68.8733 3.85191 68.9533 3.97183C69.0377 4.0873 69.1553 4.19611 69.3063 4.29826C69.4618 4.4004 69.6483 4.49811 69.8659 4.59138C70.088 4.68464 70.3367 4.77569 70.6121 4.86451C71.1272 5.02884 71.5847 5.21315 71.9844 5.41744C72.3886 5.6173 72.7283 5.84602 73.0037 6.10361C73.2835 6.35676 73.4944 6.64544 73.6365 6.96965C73.7831 7.29386 73.8564 7.66026 73.8564 8.06885C73.8564 8.50409 73.772 8.89047 73.6032 9.228C73.4345 9.56554 73.1924 9.852 72.8771 10.0873C72.5618 10.3183 72.1843 10.4937 71.7446 10.6136C71.3049 10.7335 70.8141 10.7935 70.2723 10.7935C69.7749 10.7935 69.2841 10.7313 68.8 10.607C68.3204 10.4782 67.8852 10.2828 67.4943 10.0207C67.1035 9.75429 66.7904 9.41454 66.555 9.0015C66.3241 8.58403 66.2086 8.08883 66.2086 7.51592H68.5536C68.5536 7.80015 68.5913 8.03998 68.6668 8.23539C68.7423 8.43081 68.8533 8.58847 68.9999 8.70838C69.1465 8.82385 69.3263 8.90824 69.5395 8.96153C69.7527 9.01039 69.997 9.03481 70.2723 9.03481C70.5699 9.03481 70.8097 8.99262 70.9918 8.90824C71.1739 8.81941 71.3071 8.70394 71.3915 8.56182C71.4759 8.41526 71.5181 8.25538 71.5181 8.08217ZM78 9.06146C78.2088 9.06146 78.3864 9.02371 78.533 8.94821C78.684 8.86827 78.7972 8.75724 78.8727 8.61512C78.9527 8.46856 78.9904 8.29313 78.986 8.08883H81.0978C81.1022 8.63066 80.969 9.10587 80.6981 9.51446C80.4316 9.91861 80.0674 10.2339 79.6055 10.4604C79.1481 10.6825 78.6307 10.7935 78.0533 10.7935C77.4893 10.7935 76.9963 10.7024 76.5744 10.5204C76.1525 10.3338 75.7994 10.0762 75.5152 9.74763C75.2354 9.41454 75.0244 9.02593 74.8823 8.58181C74.7446 8.13769 74.6758 7.65581 74.6758 7.13619V6.98297C74.6758 6.46335 74.7446 5.98148 74.8823 5.53736C75.0244 5.08879 75.2354 4.70019 75.5152 4.37154C75.7994 4.03845 76.1503 3.78086 76.5677 3.59877C76.9897 3.41223 77.4804 3.31897 78.04 3.31897C78.6396 3.31897 79.1681 3.43222 79.6255 3.65872C80.0874 3.88522 80.4494 4.21387 80.7114 4.64467C80.9734 5.07547 81.1022 5.59731 81.0978 6.2102H78.986C78.9904 5.99258 78.9571 5.79717 78.8861 5.62396C78.815 5.45075 78.704 5.31307 78.553 5.21093C78.4064 5.10434 78.2176 5.05104 77.9867 5.05104C77.7558 5.05104 77.5692 5.10212 77.4271 5.20426C77.285 5.30641 77.1762 5.44853 77.1007 5.63062C77.0296 5.80827 76.9808 6.01257 76.9541 6.24351C76.9319 6.47445 76.9208 6.72094 76.9208 6.98297V7.13619C76.9208 7.40267 76.9319 7.65359 76.9541 7.88898C76.9808 8.11992 77.0318 8.32422 77.1073 8.50187C77.1828 8.67507 77.2917 8.81275 77.4338 8.9149C77.5759 9.01261 77.7646 9.06146 78 9.06146ZM81.7773 7.12953V6.98963C81.7773 6.46113 81.8528 5.97482 82.0038 5.53069C82.1548 5.08213 82.3768 4.69352 82.67 4.36487C82.9631 4.03622 83.325 3.78086 83.7558 3.59877C84.1866 3.41223 84.6841 3.31897 85.2481 3.31897C85.8166 3.31897 86.3162 3.41223 86.747 3.59877C87.1822 3.78086 87.5464 4.03622 87.8395 4.36487C88.1327 4.69352 88.3547 5.08213 88.5057 5.53069C88.6567 5.97482 88.7322 6.46113 88.7322 6.98963V7.12953C88.7322 7.65359 88.6567 8.13991 88.5057 8.58847C88.3547 9.03259 88.1327 9.4212 87.8395 9.75429C87.5464 10.0829 87.1845 10.3383 86.7537 10.5204C86.3229 10.7024 85.8254 10.7935 85.2614 10.7935C84.6974 10.7935 84.1977 10.7024 83.7625 10.5204C83.3273 10.3383 82.9631 10.0829 82.67 9.75429C82.3768 9.4212 82.1548 9.03259 82.0038 8.58847C81.8528 8.13991 81.7773 7.65359 81.7773 7.12953ZM84.0223 6.98963V7.12953C84.0223 7.40044 84.0423 7.65359 84.0823 7.88898C84.1222 8.12436 84.1889 8.33088 84.2821 8.50853C84.3754 8.68174 84.502 8.81719 84.6618 8.9149C84.8217 9.01261 85.0216 9.06146 85.2614 9.06146C85.4968 9.06146 85.6922 9.01261 85.8477 8.9149C86.0075 8.81719 86.1341 8.68174 86.2274 8.50853C86.3206 8.33088 86.3873 8.12436 86.4272 7.88898C86.4672 7.65359 86.4872 7.40044 86.4872 7.12953V6.98963C86.4872 6.7276 86.4672 6.48111 86.4272 6.25017C86.3873 6.01479 86.3206 5.80827 86.2274 5.63062C86.1341 5.44853 86.0075 5.30641 85.8477 5.20426C85.6878 5.10212 85.4879 5.05104 85.2481 5.05104C85.0127 5.05104 84.8151 5.10212 84.6552 5.20426C84.4997 5.30641 84.3754 5.44853 84.2821 5.63062C84.1889 5.80827 84.1222 6.01479 84.0823 6.25017C84.0423 6.48111 84.0223 6.7276 84.0223 6.98963ZM91.9965 5.23757V10.6603H89.7515V3.45221H91.85L91.9965 5.23757ZM94.1283 3.39891L94.0883 5.48406C93.9995 5.47518 93.8796 5.46408 93.7286 5.45075C93.5776 5.43743 93.451 5.43077 93.3489 5.43077C93.0868 5.43077 92.8603 5.46185 92.6694 5.52403C92.4828 5.58177 92.3274 5.67059 92.203 5.7905C92.0831 5.90598 91.9943 6.05254 91.9366 6.23018C91.8833 6.40783 91.8588 6.61435 91.8633 6.84973L91.4569 6.58326C91.4569 6.09917 91.5035 5.65949 91.5968 5.26422C91.6945 4.86451 91.8322 4.52032 92.0098 4.23164C92.1875 3.93852 92.4029 3.71424 92.656 3.55879C92.9092 3.39891 93.1934 3.31897 93.5087 3.31897C93.6198 3.31897 93.7286 3.32563 93.8352 3.33895C93.9462 3.35228 94.0439 3.37226 94.1283 3.39891ZM98.2586 10.7935C97.6724 10.7935 97.1483 10.7024 96.6864 10.5204C96.2246 10.3338 95.8337 10.0785 95.514 9.75429C95.1986 9.43008 94.9566 9.05702 94.7878 8.6351C94.6235 8.21319 94.5413 7.76685 94.5413 7.29608V7.04293C94.5413 6.51442 94.6146 6.02589 94.7612 5.57733C94.9077 5.12432 95.1253 4.72905 95.414 4.39152C95.7027 4.05399 96.0647 3.79196 96.4999 3.60543C96.9351 3.41445 97.4414 3.31897 98.0188 3.31897C98.5295 3.31897 98.987 3.40113 99.3911 3.56546C99.7953 3.72978 100.137 3.96517 100.417 4.27161C100.701 4.57805 100.916 4.94889 101.063 5.38413C101.214 5.81937 101.289 6.30791 101.289 6.84973V7.7624H95.4007V6.35676H99.098V6.18355C99.1025 5.94373 99.0603 5.73943 98.9714 5.57066C98.8871 5.4019 98.7627 5.2731 98.5984 5.18428C98.4341 5.09545 98.2342 5.05104 97.9988 5.05104C97.7545 5.05104 97.5525 5.10434 97.3926 5.21093C97.2371 5.31752 97.115 5.46408 97.0262 5.65061C96.9418 5.8327 96.8818 6.04365 96.8463 6.28348C96.8108 6.52331 96.793 6.77645 96.793 7.04293V7.29608C96.793 7.56255 96.8286 7.8046 96.8996 8.02221C96.9751 8.23983 97.0817 8.42637 97.2194 8.58181C97.3615 8.73281 97.5303 8.8505 97.7257 8.93488C97.9255 9.01927 98.152 9.06146 98.4052 9.06146C98.7116 9.06146 99.0136 9.00372 99.3112 8.88825C99.6088 8.77278 99.8641 8.58181 100.077 8.31534L101.096 9.52779C100.95 9.73652 100.741 9.9386 100.47 10.134C100.204 10.3294 99.8841 10.4893 99.511 10.6136C99.138 10.7335 98.7205 10.7935 98.2586 10.7935Z" fill="#0FB492"/>
</svg>
